<?xml version="1.0" standalone="no"?>
<!DOCTYPE svg PUBLIC "-//W3C//DTD SVG 1.1//EN" "http://www.w3.org/Graphics/SVG/1.1/DTD/svg11.dtd" >
<svg xmlns="http://www.w3.org/2000/svg">
  <metadata>Created by iconfont</metadata>
  <defs>
  <font id="iconfont" horiz-adv-x="1024">
    <font-face
      font-family="iconfont"
      font-weight="400"
      font-stretch="normal"
      units-per-em="1024"
      ascent="896"
      descent="-128"
    />
      <missing-glyph />
      
      <glyph glyph-name="mg" unicode="&#59929;" d="M972.8 844.8c-35.84 33.28-74.24 51.2-122.88 51.2H174.08C102.4 896 33.28 847.36 10.24 780.8 2.56 760.32 0 739.84 0 719.36v-673.28c0-76.8 51.2-143.36 117.76-163.84 5.12-2.56 7.68-2.56 12.8-5.12h768c2.56 5.12 7.68 5.12 12.8 7.68 51.2 20.48 87.04 53.76 102.4 107.52 0 2.56 2.56 5.12 7.68 7.68V768c-12.8 28.16-25.6 56.32-48.64 76.8zM176.64 220.16c0-5.12-2.56-10.24-2.56-15.36-17.92-12.8-28.16-12.8-46.08 0-5.12 5.12-10.24 7.68-15.36 12.8-35.84 40.96-38.4 128-10.24 171.52 7.68 10.24 15.36 17.92 28.16 25.6 20.48 10.24 28.16 7.68 46.08-7.68 0-2.56 2.56-7.68 2.56-10.24-2.56-58.88-2.56-117.76-2.56-176.64z m611.84 46.08l-2.56-2.56c-10.24-51.2-33.28-97.28-69.12-135.68-102.4-110.08-289.28-115.2-396.8-7.68-43.52 43.52-69.12 92.16-81.92 151.04-5.12 35.84-2.56 69.12 0 104.96 10.24 46.08 28.16 87.04 58.88 122.88 46.08 56.32 104.96 89.6 176.64 102.4 33.28 2.56 66.56 2.56 97.28-2.56 46.08-12.8 87.04-30.72 122.88-61.44 53.76-46.08 87.04-102.4 97.28-174.08 0-2.56 2.56-5.12 2.56-7.68v-2.56c0 2.56 0 2.56 2.56 5.12v-2.56c0-2.56 0-2.56-2.56-5.12v-53.76c-2.56-7.68-2.56-20.48-5.12-30.72z m10.24-58.88s0-2.56 2.56-2.56c-2.56 0-2.56 0-2.56 2.56z m25.6-17.92c-12.8-2.56-17.92 5.12-23.04 15.36v97.28c0 38.4 5.12 79.36-2.56 117.76-5.12 71.68-35.84 130.56-87.04 181.76-35.84 35.84-79.36 61.44-130.56 71.68-12.8 5.12-25.6 5.12-38.4 7.68-10.24 2.56-15.36-2.56-15.36-12.8V640c0-23.04-7.68-30.72-30.72-28.16-10.24 5.12-15.36 15.36-12.8 28.16v23.04c2.56 12.8-2.56 17.92-17.92 15.36-120.32-20.48-220.16-122.88-235.52-245.76-7.68-48.64-2.56-94.72-2.56-143.36 0-30.72 5.12-61.44-2.56-89.6-17.92-12.8-25.6-10.24-40.96 5.12v33.28c0 56.32 2.56 115.2 0 171.52 5.12 71.68 28.16 138.24 74.24 194.56C368.64 744.96 588.8 768 724.48 647.68c66.56-58.88 104.96-130.56 115.2-217.6v-202.24c0-5.12 0-12.8 2.56-17.92-2.56-12.8-7.68-20.48-17.92-20.48z m99.84 43.52c-7.68-12.8-17.92-23.04-28.16-33.28-17.92-10.24-30.72-10.24-43.52 7.68-2.56 66.56-2.56 133.12 0 197.12 17.92 15.36 33.28 15.36 56.32 0 12.8-10.24 23.04-25.6 28.16-43.52 10.24-43.52 7.68-84.48-12.8-128zM386.56 414.72c-17.92 5.12-28.16-7.68-35.84-20.48 0 0-2.56 0-2.56-2.56-7.68 10.24-12.8 23.04-28.16 23.04-15.36 0-20.48-10.24-30.72-17.92 0 20.48-15.36 12.8-23.04 15.36-12.8 0-10.24-10.24-10.24-15.36v-130.56c0-15.36 5.12-17.92 20.48-17.92 15.36 0 17.92 7.68 17.92 20.48v81.92c0 7.68 2.56 15.36 10.24 17.92 7.68 2.56 10.24-7.68 12.8-12.8 0-33.28-2.56-66.56 2.56-102.4 2.56-2.56 5.12-2.56 10.24-2.56 25.6 0 25.6 0 25.6 23.04v74.24c0 7.68 2.56 20.48 12.8 20.48s10.24-10.24 12.8-20.48v-87.04c0-10.24 5.12-12.8 15.36-10.24 7.68 2.56 20.48-5.12 20.48 10.24 0 40.96 2.56 81.92-2.56 122.88-5.12 10.24-10.24 25.6-28.16 30.72zM532.48 363.52c0 10.24-2.56 15.36-12.8 15.36-20.48 0-20.48 0-20.48-20.48v-33.28c0-10.24 0-20.48-2.56-30.72-2.56-5.12-5.12-10.24-12.8-10.24s-10.24 5.12-10.24 12.8v15.36 58.88c0 10.24-5.12 12.8-12.8 10.24-10.24-5.12-25.6 2.56-25.6-12.8 0-33.28-2.56-66.56 0-99.84 2.56-12.8 7.68-23.04 20.48-25.6 12.8-2.56 23.04 0 33.28 10.24 2.56 2.56 2.56 5.12 2.56 7.68 5.12-23.04 20.48-15.36 30.72-15.36 12.8 0 7.68 10.24 7.68 17.92 2.56 30.72 2.56 66.56 2.56 99.84zM601.6 325.12c-7.68 2.56-12.8 2.56-20.48 5.12-5.12 2.56-10.24 7.68-5.12 12.8s10.24 5.12 15.36 2.56c2.56-2.56 2.56-5.12 5.12-5.12 10.24-5.12 20.48-2.56 28.16 0 7.68 2.56 2.56 10.24 0 15.36-7.68 15.36-20.48 20.48-35.84 17.92-28.16 0-38.4-10.24-43.52-33.28-5.12-23.04 5.12-40.96 30.72-48.64 7.68-2.56 12.8-2.56 20.48-7.68 7.68-2.56 7.68-7.68 5.12-15.36-5.12-5.12-10.24-7.68-15.36-2.56-2.56 2.56-5.12 7.68-7.68 10.24-10.24 7.68-20.48 2.56-30.72 0-7.68-2.56-2.56-10.24 0-15.36 7.68-20.48 30.72-28.16 53.76-20.48 20.48 5.12 30.72 20.48 30.72 43.52 0 23.04-10.24 35.84-30.72 40.96zM783.36 291.84c-10.24 5.12-20.48 12.8-28.16-2.56-2.56-5.12-5.12-12.8-12.8-10.24-7.68 0-10.24 5.12-10.24 12.8-5.12 12.8-5.12 25.6 0 40.96 5.12 15.36 12.8 17.92 23.04 5.12 7.68-10.24 15.36-2.56 23.04 0 7.68 0 5.12 7.68 2.56 12.8-5.12 15.36-12.8 28.16-30.72 30.72-20.48 2.56-33.28-2.56-43.52-23.04-12.8-25.6-10.24-53.76-2.56-81.92 2.56-12.8 10.24-23.04 23.04-28.16 12.8-2.56 25.6-2.56 35.84 2.56l15.36 23.04v2.56c2.56 5.12 10.24 10.24 5.12 15.36zM657.92 376.32c-7.68 2.56-12.8-2.56-12.8-10.24v-112.64c10.24-10.24 20.48-5.12 30.72-2.56 5.12 40.96 2.56 79.36 2.56 120.32 0 12.8-12.8 5.12-20.48 5.12z m17.92-35.84c0-2.56 0-2.56 0 0zM663.04 427.52c-12.8 0-17.92-5.12-17.92-17.92 0-10.24 0-20.48 15.36-17.92 15.36-2.56 17.92 2.56 17.92 17.92 2.56 12.8 0 17.92-15.36 17.92z"  horiz-adv-x="1024" />
      
      <glyph glyph-name="qq" unicode="&#58882;" d="M35.84 366.08c0-263.68 215.04-478.72 478.72-478.72 263.68 0 478.72 215.04 478.72 478.72 0 263.68-212.48 478.72-478.72 478.72-263.68 0-478.72-215.04-478.72-478.72zM660.48 885.76c-17.92-20.48-56.32-38.4-107.52-51.2C465.92 814.08 448 808.96 422.4 793.6c-15.36-7.68-33.28-20.48-43.52-30.72-20.48-17.92-35.84-51.2-30.72-61.44 2.56-5.12 51.2-74.24 110.08-158.72 58.88-81.92 115.2-163.84 128-181.76 12.8-17.92 20.48-33.28 20.48-33.28 0-2.56-10.24 0-20.48 2.56-40.96 12.8-112.64 0-163.84-25.6-38.4-20.48-81.92-64-99.84-99.84-20.48-40.96-23.04-97.28-7.68-135.68 15.36-40.96 48.64-74.24 92.16-97.28 33.28-17.92 40.96-17.92 84.48-20.48 35.84-2.56 56.32 0 76.8 5.12 94.72 28.16 163.84 102.4 168.96 189.44 2.56 48.64-2.56 64-66.56 176.64-99.84 174.08-189.44 332.8-189.44 335.36 0 0 17.92 2.56 40.96 5.12 66.56 2.56 120.32 35.84 148.48 89.6 12.8 23.04 12.8 30.72 12.8 79.36 0 30.72-2.56 58.88-5.12 61.44-2.56 7.68-5.12 5.12-17.92-7.68z"  horiz-adv-x="1024" />
      
      <glyph glyph-name="wy" unicode="&#58891;" d="M0 896m184.32 0l655.36 0q184.32 0 184.32-184.32l0-655.36q0-184.32-184.32-184.32l-655.36 0q-184.32 0-184.32 184.32l0 655.36q0 184.32 184.32 184.32ZM527.616 46.56128a373.6064 373.6064 0 0 0-162.54976 39.00416c-112.36352 55.16288-180.00896 176.29184-172.55424 308.67456 7.41376 130.34496 85.10464 237.4656 202.752 279.552a35.85024 35.85024 0 0 0 24.15616-67.51232c-107.66336-38.49216-150.81472-136.86784-155.29984-216.13568-5.86752-103.51616 46.08-197.79584 132.34176-240.13824 124.69248-60.30336 216.91392-22.35392 260.82304 5.64224 59.8016 38.16448 97.86368 100.01408 96.95232 157.55264-1.024 63.72352-24.064 120.99584-63.27296 157.14304a145.408 145.408 0 0 1-65.5872 35.28704q2.82624-9.76896 5.64224-19.32288c13.38368-45.63968 24.94464-85.05344 25.6-114.40128a134.26688 134.26688 0 0 0-37.69344-97.76128 139.1104 139.1104 0 0 0-100.6592-40.45824 140.10368 140.10368 0 0 0-100.47488 42.24 169.12384 169.12384 0 0 0-46.2848 122.76736c1.19808 85.12512 80.11776 153.28256 162.816 175.104a324.80256 324.80256 0 0 0-6.71744 67.05152 92.0576 92.0576 0 0 0 69.18144 91.81184c46.21312 12.53376 104.448-5.19168 124.66176-37.888a35.84 35.84 0 0 0-11.70432-49.31584 35.84 35.84 0 0 0-49.26464 11.65312 62.34112 62.34112 0 0 1-48.45568 5.21216c-4.32128-1.71008-12.35968-4.90496-12.76928-23.10144a270.87872 270.87872 0 0 1 6.73792-58.51136 217.4976 217.4976 0 0 0 133.56032-57.6512c53.57568-49.38752 85.0432-125.46048 86.35392-208.71168 1.29024-81.85856-49.7664-167.86432-130.048-219.136a310.14912 310.14912 0 0 0-168.2432-48.65024z m23.6544 457.55392c-56.77056-15.6672-107.4688-63.03744-108.07296-106.42432a98.304 98.304 0 0 1 25.6512-71.43424 68.0448 68.0448 0 0 1 49.36704-20.87936 67.24608 67.24608 0 0 1 49.44896 18.944 63.19104 63.19104 0 0 1 17.23392 46.08c-0.4096 19.79392-11.7248 58.368-22.67136 95.6928-3.61472 12.42112-7.35232 25.14944-10.9568 38.02112z"  horiz-adv-x="1024" />
      
      <glyph glyph-name="kg" unicode="&#60285;" d="M849.92 844.8H174.08c-67.8656 0-122.88-55.0144-122.88-122.88v-675.84c0-67.8656 55.0144-122.88 122.88-122.88h675.84c67.8656 0 122.88 55.0144 122.88 122.88V721.92c0 67.8656-55.0144 122.88-122.88 122.88z m-337.92-768c-169.39008 0-307.2 137.80992-307.2 307.2s137.80992 307.2 307.2 307.2 307.2-137.80992 307.2-307.2-137.80992-307.2-307.2-307.2zM512 660.48c-152.45312 0-276.48-124.02688-276.48-276.48s124.02688-276.48 276.48-276.48 276.48 124.032 276.48 276.48-124.02688 276.48-276.48 276.48z m43.008-294.4l103.424-132.61824h-94.208L485.376 346.624c-13.17376 19.968-16.65024 35.29728-16.10752 46.49472l-14.84288-159.65696h-70.656l27.70944 297.984h70.656l-12.5184-134.63552c1.90976 14.06464 10.1632 20.46976 10.1632 20.46976l114.1504 114.16576h87.04S581.63712 431.104 559.616 409.088s-4.608-43.008-4.608-43.008z"  horiz-adv-x="1024" />
      
      <glyph glyph-name="kw" unicode="&#58881;" d="M0 896m174.7656 0l674.4688 0q174.7656 0 174.7656-174.7656l0-674.4688q0-174.7656-174.7656-174.7656l-674.4688 0q-174.7656 0-174.7656 174.7656l0 674.4688q0 174.7656 174.7656 174.7656ZM154.01256 758.739894l68.760073-68.270001s7.391083-23.41343-6.901011-32.284729c0 0-39.925849-34.004981-28.344152-74.920975 0 0 4.680686-31.794657 50.027328-45.096606 0 0 24.393573-1.480217 30.314441 2.710397 0 0 44.856571 25.87379 50.027328 60.628881 0 0 5.420794 17.002491-6.901011 41.156029L210.450828 748.878449s34.995126 13.061913 46.576823 48.797148c0 0 9.361371 38.935703-4.930723 57.668448 0 0-4.44065 5.910866-11.33166 0 0 0-28.834224-26.613899-44.356497-29.324296 0 0-8.381228-3.700542-14.052059-2.46036 0 0-12.571842 0-25.633755-12.571842 0 0-22.923358-27.604044-2.710397-52.247653zM95.353968 564.231401s-25.133682-66.729775-30.804513-153.972554c0 0-5.060741-133.329531 11.091625-196.168736 0 0 23.993515-99.314548 50.027328-134.309674 0 0 46.826859-72.70065 94.633863-98.824477 0 0 79.111589-47.316931 135.049783-56.18823 0 0 46.576823-11.581697 89.213068-13.31195h150.582058s126.178483 20.703033 146.631479 34.995126c0 0 111.146281 45.596679 153.292455 123.958158 0 0 56.438267 92.663574 62.839205 184.096967 0 0 12.321805 122.477941 2.960434 174.975631 0 0-13.551985 119.527509-39.185741 161.913718 0 0-37.705523 98.684456-138.750324 153.092426 0 0-84.042311 47.756996-185.577184 52.687718 0 0-182.366714 17.252527-275.030288-21.443141 0 0-12.321805-6.220911-13.061913-18.732744 0 0-0.830122-12.071768 9.811437-21.193105 0 0 8.181198-5.670831 18.77275-4.190614 0 0 80.831841 22.183249 116.317038 19.712888 0 0 176.205811 5.170757 213.421263-13.802022 0 0 87.732851-23.41343 127.408664-58.898628 0 0 60.128808-46.826859 86.752707-116.817111 0 0 27.844079-57.058358 32.034693-158.653241 0 0 3.700542-120.327626-5.420794-152.85239 0 0-13.802022-82.312057-35.735235-122.477941 0 0-31.294584-77.631372-119.527509-122.978015 0 0-30.554476-24.503589-144.171118-41.706109 0 0-97.594296-13.852029-187.547473 0 0 0-102.525018 4.000586-187.297436 67.329863 0 0-69.720213 41.116023-103.995234 165.114186 0 0-26.863935 106.855653-17.252527 189.217718 0 0 1.070157 94.193798 19.962924 140.280549l9.121336 27.354007s1.720252 18.732744-18.232671 25.87379c0 0-20.943068 3.830561-28.344152-14.102066zM496.872784 488.820355l-69.750217-69.570191s-25.173688-16.902476-24.633609-74.61093c0 0-0.150022-24.993661 27.974098-56.628295l66.409728-65.799639s2.340343-60.768902-61.489007-86.472666c0 0-60.048796-27.684055-112.716511 29.664345 0 0-16.542423 14.022054-20.853055 47.636978V500.80211s14.20208 67.839937 77.721385 78.621517c0 0 50.067334 8.151194 83.522235-20.13295 0 0 40.405919-35.955267 33.814953-70.470322zM443.66499 388.185613l163.353929 162.483801s42.776266 36.435337 100.254686 12.221791c0 0 34.385037-12.461825 53.237798-49.377233 0 0 20.292973-38.355618 1.84027-80.781834 0 0-8.631264-18.212668-17.742599-27.564037l-49.587264-48.927167 53.31781-54.147932s28.144123-31.4046 20.472999-74.550921c0 0-0.960141-41.466074-47.937022-72.390604 0 0-33.074845-23.733477-87.252781-9.35137 0 0-2.880422 0.720105-23.013371 13.421967L450.726024 315.985037s-27.324003 26.673907-7.071035 72.190575z"  horiz-adv-x="1024" />
      
      <glyph glyph-name="liebiao" unicode="&#58880;" d="M187.392 825.344q28.672 0 48.64-19.456t19.968-48.128l0-52.224q0-28.672-19.968-48.64t-48.64-19.968l-54.272 0q-27.648 0-47.616 19.968t-19.968 48.64l0 52.224q0 28.672 19.968 48.128t47.616 19.456l54.272 0zM889.856 825.344q27.648 0 47.616-19.456t19.968-48.128l0-52.224q0-28.672-19.968-48.64t-47.616-19.968l-437.248 0q-28.672 0-48.64 19.968t-19.968 48.64l0 52.224q0 28.672 19.968 48.128t48.64 19.456l437.248 0zM187.392 506.88q28.672 0 48.64-19.968t19.968-48.64l0-52.224q0-27.648-19.968-47.616t-48.64-19.968l-54.272 0q-27.648 0-47.616 19.968t-19.968 47.616l0 52.224q0 28.672 19.968 48.64t47.616 19.968l54.272 0zM889.856 506.88q27.648 0 47.616-19.968t19.968-48.64l0-52.224q0-27.648-19.968-47.616t-47.616-19.968l-437.248 0q-28.672 0-48.64 19.968t-19.968 47.616l0 52.224q0 28.672 19.968 48.64t48.64 19.968l437.248 0zM187.392 187.392q28.672 0 48.64-19.968t19.968-47.616l0-52.224q0-28.672-19.968-48.64t-48.64-19.968l-54.272 0q-27.648 0-47.616 19.968t-19.968 48.64l0 52.224q0 27.648 19.968 47.616t47.616 19.968l54.272 0zM889.856 187.392q27.648 0 47.616-19.968t19.968-47.616l0-52.224q0-28.672-19.968-48.64t-47.616-19.968l-437.248 0q-28.672 0-48.64 19.968t-19.968 48.64l0 52.224q0 27.648 19.968 47.616t48.64 19.968l437.248 0z"  horiz-adv-x="1024" />
      
      <glyph glyph-name="shengyin" unicode="&#58956;" d="M784 524.8c-16 25.6-35.2 44.8-44.8 54.4-9.6 9.6-28.8 9.6-38.4-3.2-9.6-9.6-9.6-28.8 3.2-38.4 3.2-3.2 6.4-6.4 9.6-9.6 9.6-9.6 19.2-22.4 25.6-35.2 57.6-86.4 57.6-179.2-38.4-278.4-9.6-9.6-9.6-28.8 0-38.4 9.6-9.6 28.8-9.6 38.4 0C851.2 297.6 851.2 419.2 784 524.8zM896 649.6c-16 25.6-35.2 48-54.4 70.4-9.6 12.8-19.2 19.2-25.6 25.6-9.6 9.6-28.8 9.6-38.4-3.2-9.6-9.6-9.6-28.8 3.2-38.4 3.2-3.2 12.8-9.6 22.4-22.4 16-19.2 32-38.4 48-64 105.6-160 105.6-336-70.4-518.4-9.6-9.6-9.6-28.8 0-38.4 9.6-9.6 28.8-9.6 38.4 0C1014.4 265.6 1014.4 470.4 896 649.6zM483.2 809.6l-217.6-185.6-108.8 0c-57.6 0-108.8-48-108.8-108.8l0-272c0-60.8 48-108.8 108.8-108.8l96 0 230.4-182.4c54.4-41.6 105.6-16 105.6 51.2l0 755.2C588.8 828.8 534.4 854.4 483.2 809.6zM534.4 6.4c0-22.4-3.2-22.4-19.2-9.6l-236.8 185.6c-3.2 3.2-9.6 6.4-16 6.4l-105.6 0c-28.8 0-54.4 25.6-54.4 54.4l0 272c0 28.8 25.6 54.4 54.4 54.4l118.4 0c6.4 0 12.8 3.2 16 6.4l224 192c16 12.8 16 12.8 16-6.4L531.2 6.4z"  horiz-adv-x="1024" />
      
      <glyph glyph-name="minimize" unicode="&#59031;" d="M341.333333 153.002667l-183.168-183.168-60.330666 60.330666L281.002667 213.333333H128v85.333334h298.666667v-298.666667H341.333333v153.002667zM725.333333 170.666667v213.333333h85.333334v-298.666667h-298.666667v85.333334h213.333333zM298.666667 597.333333v-213.333333H213.333333V682.666667h298.666667v-85.333334H298.666667z m597.333333-42.666666v-85.333334h-298.666667V768h85.333334v-153.002667l183.168 183.168 60.330666-60.330666L742.997333 554.666667H896z"  horiz-adv-x="1024" />
      
      <glyph glyph-name="bofang" unicode="&#58938;" d="M732.502883 430.397181c-107.883492 82.3454-215.772403 164.681769-323.652282 247.014525-38.414608 29.327534-93.780555 1.929039-93.780555-46.396277v-494.029051c0-48.325316 55.365948-75.725617 93.780555-46.398084 107.87988 82.332757 215.76879 164.669126 323.652282 247.014525 30.61356 23.357989 30.61356 69.436372 0 92.794362z"  horiz-adv-x="1024" />
      
      <glyph glyph-name="zanting" unicode="&#58939;" d="M716.805057 115.201603V652.800203c0 21.204979-17.196985 38.40377-38.40377 38.403771s-38.401964-17.196985-38.401964-38.403771v-537.5986c0-21.204979 17.196985-38.392933 38.401964-38.392933s38.40377 17.187954 38.40377 38.392933zM384.000677 115.201603V652.800203c0 21.204979-17.187954 38.40377-38.391127 38.403771-21.215816 0-38.40377-17.196985-38.40377-38.403771v-537.5986c0-21.204979 17.187954-38.392933 38.40377-38.392933 21.203173 0 38.391127 17.187954 38.391127 38.392933z"  horiz-adv-x="1024" />
      
      <glyph glyph-name="shangyishou" unicode="&#58940;" d="M364.302083 430.397181L687.954365 677.411706c38.416414 29.327534 93.791393 1.929039 93.791392-46.396277v-494.029051c0-48.325316-55.374979-75.725617-93.791392-46.398084L364.302083 337.602819c-30.600916 23.357989-30.600916 69.436372 0 92.794362zM238.945254 115.201603V444.315883v164.562559c0 19.628152-5.904521 60.475733 17.057907 75.841215 25.523642 17.068744 59.747828-1.210165 59.747828-31.919454v-493.676839c0-19.628152 5.915358-60.473927-17.047069-75.841215-25.53448-17.068744-59.758666 1.211971-59.758666 31.919454z"  horiz-adv-x="1024" />
      
      <glyph glyph-name="xiayishou" unicode="&#58942;" d="M655.706179 430.397181L332.053897 677.411706c-38.414608 29.327534-93.791393 1.929039-93.791392-46.396277v-494.029051c0-48.325316 55.376785-75.725617 93.791392-46.398084l323.652282 247.014525c30.602722 23.357989 30.602722 69.436372 0 92.794362zM781.064814 115.201603V444.315883v164.562559c0 19.628152 5.904521 60.475733-17.057907 75.841215-25.523642 17.068744-59.747828-1.210165-59.747828-31.919454v-493.676839c0-19.628152-5.915358-60.473927 17.047069-75.841215 25.532673-17.068744 59.758666 1.211971 59.758666 31.919454z"  horiz-adv-x="1024" />
      
      <glyph glyph-name="xuanxiangshanchu" unicode="&#58967;" d="M709.792973 708.590927h229.065747c27.15822 0 49.170538-21.985225 49.197631-49.141638-0.01445-27.156413-22.039412-49.168732-49.197631-49.168732h-49.183182v-550.367569c0-103.943949-70.230982-187.912988-156.809999-187.912988H291.12543c-86.582629 0-156.811805 84.472972-156.811805 187.912988V610.83687H79.997185c-27.145576 0-49.170538 21.985225-49.197631 49.141639 0.027093 27.14377 22.052055 49.141639 49.197631 49.141639h243.921849C327.515204 813.062291 412.587839 895.999982 517.106164 895.999982c104.399115 0.054186 189.856473-83.055095 192.686809-187.409055zM296.612705-38.924797h447.904715c31.166206 0 65.440905 39.35377 65.440905 95.584795V606.617557H231.155544v-549.455431c0-56.218381 34.303598-95.582989 65.455355-95.582989l0.001806-0.503934zM609.598723 717.914599c-3.041663 50.068226-46.392582 89.037273-99.914288 89.037273-53.536155 0-96.859981-38.99614-100.432671-89.037273H609.598723zM654.127293 94.637434c24.48683 0 44.528571 21.797379 44.528571 49.100096V423.95523c0 27.302717-20.04174 49.089259-44.528571 49.089259-24.472381 0-44.514121-21.786542-44.514121-49.089259v-280.2177c0-27.302717 19.458333-49.100096 44.514121-49.100096zM520.557837 94.637434c24.499474 0 44.541214 21.797379 44.541215 49.100096V423.95523c0 27.302717-20.04174 49.089259-44.541215 49.089259-24.48683 0-44.526764-21.786542-44.526764-49.089259v-280.2177c0-27.302717 20.039934-49.100096 44.541214-49.100096h-0.01445zM364.726806 94.637434c24.512117 0 44.526764 21.797379 44.526764 49.100096V423.95523c0 27.302717-20.014647 49.089259-44.526764 49.089259-24.472381 0-44.528571-21.786542-44.528571-49.089259v-280.2177c0-27.302717 19.487233-49.100096 44.553858-49.100096h-0.025287z"  horiz-adv-x="1024" />
      
      <glyph glyph-name="guanbi" unicode="&#58977;" d="M512 295.360839c88.631033-88.645482 177.280128-177.276515 265.91116-265.92561 24.481455-24.463393 64.165833-24.463393 88.649095 0 24.481455 24.481455 24.481455 64.165833 0 88.647289-88.649095 88.631033-177.280128 177.276515-265.929222 265.907548l265.929222 265.927416c24.481455 24.463393 24.481455 64.149577 0 88.631033-24.483262 24.481455-64.167639 24.481455-88.649095 0l-265.91116-265.909354c-88.649095 88.631033-177.281934 177.278321-265.912966 265.909354-24.481455 24.481455-64.169446 24.481455-88.649095 0-24.481455-24.481455-24.481455-64.167639 0-88.631033 88.649095-88.647289 177.280128-177.278321 265.912966-265.927416-88.632839-88.631033-177.263872-177.276515-265.912966-265.907548-24.481455-24.481455-24.481455-64.165833 0-88.647289 24.479649-24.463393 64.167639-24.463393 88.649095 0 88.631033 88.649095 177.263872 177.280128 265.912966 265.92561z"  horiz-adv-x="1024" />
      
      <glyph glyph-name="xinxi" unicode="&#59068;" d="M512 896C229.229617 896 0.000903 666.765867 0.000903 384.004516 0.000903 101.237745 229.229617-127.998194 512-127.998194S1023.999097 101.235939 1023.999097 384.004516C1023.999097 666.765867 794.770383 896 512 896z m83.618783-762.868088c0-45.991685-37.627097-83.616976-83.618783-83.616976-46.006135 0-83.624201 37.625291-83.624201 83.616976V383.999097c0 45.997104 37.618066 83.624201 83.624201 83.624201 45.991685 0 83.618783-37.627097 83.618783-83.624201v-250.867185z m-83.618783 418.113781c-46.006135 0-83.624201 37.627097-83.624201 83.616976 0 45.99891 37.618066 83.624201 83.624201 83.624202 45.991685 0 83.618783-37.625291 83.618783-83.624202 0-45.991685-37.627097-83.616976-83.618783-83.616976z"  horiz-adv-x="1024" />
      
      <glyph glyph-name="zuixiaohua" unicode="&#59002;" d="M128 448h768v-128H128z"  horiz-adv-x="1024" />
      
      <glyph glyph-name="QQmusic" unicode="&#58901;" d="M42.666667 379.30666699999995A469.333333 469.333333 0 1 1 512 843.946667 469.333333 469.333333 0 0 1 42.666667 379.30666699999995zM654.933333 883.626667a217.173333 217.173333 0 0 0-105.386666-49.493334 409.6 409.6 0 0 1-128-39.68 184.746667 184.746667 0 0 1-42.666667-29.866666c-20.053333-17.493333-34.986667-49.493333-30.293333-59.733334s50.346667-72.106667 107.946666-154.026666 113.066667-159.146667 125.44-176.213334a269.226667 269.226667 0 0 0 20.053334-32.426666c0-2.56-10.24 0-20.053334 2.56a256 256 0 0 1-160.426666-24.746667 260.266667 260.266667 0 0 1-97.706667-96.853333 170.666667 170.666667 0 0 1-7.68-131.84 183.893333 183.893333 0 0 1 90.453333-94.293334 146.346667 146.346667 0 0 1 82.773334-20.053333 221.866667 221.866667 0 0 1 75.093333 5.12 216.32 216.32 0 0 1 165.546667 183.893333c2.56 47.36-2.56 62.293333-65.28 170.666667-97.706667 170.666667-185.6 322.986667-185.6 325.546667l40.106666 5.12a165.973333 165.973333 0 0 1 145.493334 85.333333c12.373333 22.186667 12.373333 29.866667 12.373333 77.226667a221.44 221.44 0 0 1-5.12 59.733333c-2.133333 8.96-4.266667 6.4-17.066667-5.973333z"  horiz-adv-x="1024" />
      
      <glyph glyph-name="shunxubofangtubiao" unicode="&#58920;" d="M152.732203 611.362712h867.796611V548.881356h-867.796611zM1037.884746 531.525424h-902.508475V628.718644h902.508475v-97.19322z m-867.79661 34.711864h833.084745v27.769492h-833.084745v-27.769492zM152.732203 337.138983h867.796611v-62.481356h-867.796611zM1037.884746 257.301695h-902.508475v97.19322h902.508475v-97.19322z m-867.79661 34.711864h833.084745v27.769492h-833.084745v-27.769492zM152.732203 49.030508h867.796611v-62.481355h-867.796611zM1037.884746-30.80678h-902.508475v97.193221h902.508475v-97.193221z m-867.79661 34.711865h833.084745v27.769491h-833.084745v-27.769491zM803.996203 819.425627l209.729085-192.477288-42.279051-46.027932-209.694373 192.477288zM971.932203 559.294915l-236.040678 215.21356 65.952543 72.894915 236.040678-215.213559L971.932203 559.294915z m-187.444067 215.21356l183.972881-166.61695 17.355932 20.827119-183.972881 166.616949-17.355932-20.827118z"  horiz-adv-x="1128" />
      
      <glyph glyph-name="suijibofang" unicode="&#58883;" d="M823.456 653l-109.68 109.72c-15.619 15.625-15.614 40.951 0.01 56.57 15.623 15.618 40.95 15.613 56.568-0.01l177.935-178C973.481 616.077 955.633 573 920 573H747.43c-37.616 0-72.746-18.808-93.615-50.122l-23.12-34.693c-12.25-18.383-37.085-23.354-55.468-11.103-18.383 12.25-23.354 37.085-11.103 55.468l23.12 34.692C622.948 620.818 683.059 653 747.43 653h76.025zM394.812 278.49c12.251 18.383 37.085 23.354 55.468 11.103 18.383-12.25 23.354-37.085 11.103-55.468l-72.885-109.367C352.794 71.182 292.683 39 228.311 39H104c-22.091 0-40 17.909-40 40s17.909 40 40 40h124.311c37.617 0 72.747 18.808 93.616 50.122l72.885 109.368zM742.888 115c-61.531 0-118.99 30.757-153.114 81.96L319.396 602.675A104 104 0 0 1 232.854 649H104c-22.091 0-40 17.909-40 40s17.909 40 40 40h128.854c61.531 0 118.99-30.757 153.114-81.96l270.378-405.714A104 104 0 0 1 742.888 195H920c35.633 0 53.481-43.078 28.29-68.28l-177.936-178c-15.618-15.623-40.945-15.628-56.569-0.01-15.623 15.619-15.628 40.945-0.01 56.57L823.456 115h-80.568z"  horiz-adv-x="1024" />
      
      <glyph glyph-name="bofangjilu" unicode="&#59565;" d="M822.496 422.848l52.053333-29.290667C869.461333 589.44 709.098667 746.666667 512 746.666667c-200.298667 0-362.666667-162.368-362.666667-362.666667s162.368-362.666667 362.666667-362.666667c122.538667 0 234.645333 61.194667 301.578667 161.152a32 32 0 1 0 53.173333-35.616C788.064 29.365333 656.117333-42.666667 512-42.666667 276.362667-42.666667 85.333333 148.362667 85.333333 384S276.362667 810.666667 512 810.666667s426.666667-191.029333 426.666667-426.666667c0-10.954667-0.853333-26.357333-2.517334-46.528-1.930667-23.242667-27.274667-36.682667-47.594666-25.248l-97.450667 54.848a32 32 0 1 0 31.392 55.786667z m-493.12-176.213333L480 397.237333V576a32 32 0 0 0 64 0v-192a32 32 0 0 0-9.376-22.624l-160-160a32 32 0 1 0-45.248 45.248z"  horiz-adv-x="1024" />
      
      <glyph glyph-name="chuangzuo" unicode="&#59566;" d="M896 32a32 32 0 0 0 0-64H128a32 32 0 0 0 0 64z m-60.16 733.621333l15.093333-15.093333c45.866667-45.834667 45.866667-120.16 0-166.005333L418.794667 152.661333a160.192 160.192 0 0 0-78.122667-42.986666l-152.245333-34.197334c-23.84-5.365333-44.661333 16.853333-37.749334 40.288l43.338667 146.88a160.042667 160.042667 0 0 0 40.373333 67.925334l435.328 435.050666c45.866667 45.834667 120.245333 45.834667 166.112 0zM636.32 641.696L279.68 285.290667a96.021333 96.021333 0 0 1-24.213333-40.746667l-27.946667-94.656 99.093333 22.261333a96.117333 96.117333 0 0 1 46.869334 25.781334L726.933333 551.157333l-90.602666 90.538667z m78.698667 78.656l-33.397334-33.386667 90.602667-90.538666 33.386667 33.376a53.333333 53.333333 0 0 1 0 75.456l-15.093334 15.093333a53.408 53.408 0 0 1-75.498666 0z"  horiz-adv-x="1024" />
      
      <glyph glyph-name="fuzhi" unicode="&#59568;" d="M394.666667 789.333333h448a74.666667 74.666667 0 0 0 74.666666-74.666666v-448a74.666667 74.666667 0 0 0-74.666666-74.666667H394.666667a74.666667 74.666667 0 0 0-74.666667 74.666667V714.666667a74.666667 74.666667 0 0 0 74.666667 74.666666z m0-64a10.666667 10.666667 0 0 1-10.666667-10.666666v-448a10.666667 10.666667 0 0 1 10.666667-10.666667h448a10.666667 10.666667 0 0 1 10.666666 10.666667V714.666667a10.666667 10.666667 0 0 1-10.666666 10.666666H394.666667z m245.333333-597.333333a32 32 0 0 0 64 0v-74.666667a74.666667 74.666667 0 0 0-74.666667-74.666666H181.333333a74.666667 74.666667 0 0 0-74.666666 74.666666V501.333333a74.666667 74.666667 0 0 0 74.666666 74.666667h74.666667a32 32 0 0 0 0-64h-74.666667a10.666667 10.666667 0 0 1-10.666666-10.666667v-448a10.666667 10.666667 0 0 1 10.666666-10.666666h448a10.666667 10.666667 0 0 1 10.666667 10.666666v74.666667z"  horiz-adv-x="1024" />
      
      <glyph glyph-name="huatifuhao" unicode="&#59569;" d="M651.424 678.933333a32 32 0 0 0 62.485333-13.866666L682.261333 522.666667H800a32 32 0 0 0 31.946667-30.122667L832 490.666667a32 32 0 0 0-32-32H668.032l-33.184-149.333334H800a32 32 0 0 0 31.946667-30.122666L832 277.333333a32 32 0 0 0-32-32H620.629333l-34.72-156.266666a32 32 0 0 0-36.341333-24.661334l-1.845333 0.352a32 32 0 0 0-24.298667 38.186667L555.061333 245.333333H407.296l-34.72-156.288a32 32 0 0 0-36.341333-24.64l-1.845334 0.341334a32 32 0 0 0-24.298666 38.186666L341.728 245.333333 224 245.333333a32 32 0 0 0-31.946667 30.122667L192 277.333333a32 32 0 0 0 32 32h131.957333l33.184 149.333334H224a32 32 0 0 0-31.946667 30.122666L192 490.666667a32 32 0 0 0 32 32h179.36l34.730667 156.266666a32 32 0 0 0 36.341333 24.661334l1.845333-0.352a32 32 0 0 0 24.298667-38.186667l-31.648-142.378667h147.765333zM602.474667 458.666667H454.698667l-33.184-149.333334h147.776l33.184 149.333334z"  horiz-adv-x="1024" />
      
      <glyph glyph-name="shaixuan" unicode="&#59574;" d="M646.037333 384.490667l224.874667 307.381333a74.741333 74.741333 0 0 1-16.074667 104.362667A74.485333 74.485333 0 0 1 810.773333 810.666667H213.226667C172.053333 810.666667 138.666667 777.237333 138.666667 736c0-15.872 5.045333-31.328 14.410666-44.128l224.885334-307.381333V-10.666667c0-17.674667 14.304-32 31.957333-32a31.978667 31.978667 0 0 1 31.946667 32V394.965333c0 6.794667-2.165333 13.418667-6.176 18.912L204.629333 729.696A10.677333 10.677333 0 0 0 213.226667 746.666667h597.546666a10.666667 10.666667 0 0 0 8.586667-16.970667L588.298667 413.877333a32.032 32.032 0 0 1-6.176-18.912v-315.413333c0-17.674667 14.304-32 31.957333-32a31.978667 31.978667 0 0 1 31.957333 32V384.490667z"  horiz-adv-x="1024" />
      
      <glyph glyph-name="shanchu" unicode="&#59575;" d="M202.666667 640h-42.666667a32 32 0 0 0 0 64h704a32 32 0 0 0 0-64H266.666667v-565.333333a53.333333 53.333333 0 0 1 53.333333-53.333334h384a53.333333 53.333333 0 0 1 53.333333 53.333334V544a32 32 0 0 0 64 0v-469.333333c0-64.8-52.533333-117.333333-117.333333-117.333334H320c-64.8 0-117.333333 52.533333-117.333333 117.333334V640z m224 106.666667a32 32 0 0 0 0 64h170.666666a32 32 0 0 0 0-64H426.666667z m-32-288a32 32 0 0 0 64 0v-256a32 32 0 0 0-64 0V458.666667z m170.666666 0a32 32 0 0 0 64 0v-256a32 32 0 0 0-64 0V458.666667z"  horiz-adv-x="1024" />
      
      <glyph glyph-name="shezhi" unicode="&#59576;" d="M944.48 343.541333l-182.357333-330.666666a73.792 73.792 0 0 0-64.565334-38.325334h-362.133333a73.792 73.792 0 0 0-64.565333 38.325334l-182.357334 330.666666a75.338667 75.338667 0 0 0 0 72.682667l182.357334 330.666667a73.792 73.792 0 0 0 64.565333 38.325333h362.133333a73.792 73.792 0 0 0 64.565334-38.325333l182.357333-330.666667a75.338667 75.338667 0 0 0 0-72.682667z m-55.989333 31.146667a10.773333 10.773333 0 0 1 0 10.378667l-182.037334 330.666666a10.517333 10.517333 0 0 1-9.205333 5.482667H335.733333a10.517333 10.517333 0 0 1-9.205333-5.482667l-182.037333-330.666666a10.773333 10.773333 0 0 1 0-10.378667l182.037333-330.666667a10.517333 10.517333 0 0 1 9.205333-5.472h361.514667a10.517333 10.517333 0 0 1 9.205333 5.472l182.037334 330.666667zM513.738667 213.333333c-94.261333 0-170.666667 76.405333-170.666667 170.666667s76.405333 170.666667 170.666667 170.666667c94.250667 0 170.666667-76.405333 170.666666-170.666667s-76.416-170.666667-170.666666-170.666667z m0 64c58.912 0 106.666667 47.754667 106.666666 106.666667s-47.754667 106.666667-106.666666 106.666667-106.666667-47.754667-106.666667-106.666667 47.754667-106.666667 106.666667-106.666667z"  horiz-adv-x="1024" />
      
      <glyph glyph-name="zengjia" unicode="&#59584;" d="M512-42.666667C276.362667-42.666667 85.333333 148.362667 85.333333 384S276.362667 810.666667 512 810.666667s426.666667-191.029333 426.666667-426.666667-191.029333-426.666667-426.666667-426.666667z m0 64c200.298667 0 362.666667 162.368 362.666667 362.666667S712.298667 746.666667 512 746.666667 149.333333 584.298667 149.333333 384s162.368-362.666667 362.666667-362.666667z m32 394.666667h128a32 32 0 0 0 0-64H544v-128a32 32 0 0 0-64 0V352H352a32 32 0 0 0 0 64h128V544a32 32 0 0 0 64 0v-128z"  horiz-adv-x="1024" />
      
      <glyph glyph-name="bangzhu" unicode="&#59587;" d="M512 810.666667c235.637333 0 426.666667-191.029333 426.666667-426.666667S747.637333-42.666667 512-42.666667 85.333333 148.362667 85.333333 384 276.362667 810.666667 512 810.666667z m0-586.666667a32 32 0 1 1 0-64 32 32 0 0 1 0 64z m-2.517333 373.333333c-48.416 0-92.746667-24.16-118.613334-63.413333a137.088 137.088 0 0 1-15.978666-33.237333 32 32 0 0 1 60.906666-19.690667c2.016 6.24 4.885333 12.202667 8.522667 17.717333C458.4 520.085333 482.709333 533.333333 509.482667 533.333333 552.277333 533.333333 586.666667 499.733333 586.666667 458.666667s-34.4-74.666667-77.194667-74.666667a32 32 0 0 1-32-32v-64a32 32 0 0 1 64 0v35.584C603.946667 337.802667 650.666667 392.768 650.666667 458.666667c0 76.757333-63.381333 138.666667-141.194667 138.666666z"  horiz-adv-x="1024" />
      
      <glyph glyph-name="faxian" unicode="&#59588;" d="M512 810.666667c235.637333 0 426.666667-191.029333 426.666667-426.666667S747.637333-42.666667 512-42.666667 85.333333 148.362667 85.333333 384 276.362667 810.666667 512 810.666667z m149.162667-222.901334L444.16 509.642667a96 96 0 0 1-57.802667-57.813334l-78.122666-216.992a42.666667 42.666667 0 0 1 54.602666-54.602666l217.002667 78.122666a96 96 0 0 1 57.802667 57.813334l78.122666 216.992a42.666667 42.666667 0 0 1-54.602666 54.602666zM512 330.666667a53.333333 53.333333 0 1 1 0 106.666666 53.333333 53.333333 0 0 1 0-106.666666z"  horiz-adv-x="1024" />
      
      <glyph glyph-name="shijian" unicode="&#59589;" d="M512-42.666667c235.637333 0 426.666667 191.029333 426.666667 426.666667S747.637333 810.666667 512 810.666667 85.333333 619.637333 85.333333 384s191.029333-426.666667 426.666667-426.666667zM329.376 246.624L480 397.258667V576a32 32 0 0 0 64 0v-192a32 32 0 0 0-9.376-22.624l-160-160a32 32 0 1 0-45.248 45.248z"  horiz-adv-x="1024" />
      
      <glyph glyph-name="shouye" unicode="&#59590;" d="M555.541333 778.005333l312.874667-224.565333A117.333333 117.333333 0 0 0 917.333333 458.133333V96c0-64.8-52.533333-117.333333-117.333333-117.333333H640V149.333333c0 70.688-57.312 128-128 128s-128-57.312-128-128v-170.666666H224c-64.8 0-117.333333 52.533333-117.333333 117.333333V458.122667a117.333333 117.333333 0 0 0 48.917333 95.317333l312.874667 224.565333a74.666667 74.666667 0 0 0 87.082666 0z"  horiz-adv-x="1024" />
      
      <glyph glyph-name="yanchu" unicode="&#59591;" d="M512 810.666667c33.173333 0 65.472-3.786667 96.48-10.954667-0.32-2.154667-0.48-4.373333-0.48-6.634667l0.010667-281.066666A159.296 159.296 0 0 1 512 544c-88.362667 0-160-71.637333-160-160 0-88.362667 71.637333-160 160-160 88.362667 0 160 71.637333 160 160 0 1.493333-0.021333 2.986667-0.064 4.458667 0.042667 0.810667 0.064 1.632 0.064 2.453333V779.658667C828.373333 716.352 938.666667 563.061333 938.666667 384c0-235.637333-191.029333-426.666667-426.666667-426.666667S85.333333 148.362667 85.333333 384 276.362667 810.666667 512 810.666667z"  horiz-adv-x="1024" />
      
      <glyph glyph-name="remen" unicode="&#59593;" d="M423.477333-42.666667S45.045333 40.576 214.186667 453.717333c0 0 38.4-45.909333 33.12-68 0 0 30.101333 104.277333 95.072 166.570667C398.165333 605.813333 454.848 756.288 402.570667 810.666667c0 0 258.933333-54.378667 287.754666-326.378667 0 0 33.12 86.666667 101.12 95.232 0 0-20.906667-47.616 0-119.04 0 0 214.485333-367.146667-155.157333-491.242667 0 0 110.805333 125.813333-124.181333 341.717334 0 0-55.402667-115.626667-88.533334-156.373334-0.096-0.106667-92.522667-103.722667-0.096-197.248z"  horiz-adv-x="1024" />
      
      <glyph glyph-name="music" unicode="&#59782;" d="M768 459.093333v-53.76a21.333333 21.333333 0 0 0-21.333333-21.333333h-42.666667a21.333333 21.333333 0 0 0-21.333333 21.333333v11.52a115.626667 115.626667 0 0 1-64 100.693334c-7.68 4.266667-14.506667 9.386667-21.333334 14.08v-384A161.28 161.28 0 0 0 426.666667 0a161.28 161.28 0 0 0-170.666667 149.333333 161.28 161.28 0 0 0 170.666667 149.333334 183.04 183.04 0 0 0 85.333333-20.906667V746.666667a21.333333 21.333333 0 0 0 21.333333 21.333333h42.666667a21.333333 21.333333 0 0 0 21.333333-21.333333v-7.253334a113.92 113.92 0 0 1 61.013334-103.253333A197.12 197.12 0 0 0 768 459.093333z"  horiz-adv-x="1024" />
      
      <glyph glyph-name="xiaoxi" unicode="&#58989;" d="M909.79 62.533l-91.493 177.94V494.881A303.097 303.097 0 0 1 794.072 614a309.313 309.313 0 0 1-163.265 163.266q-13.694 5.816-27.768 10.24a65.066 65.066 0 0 1 1.441 14.665 92.864 92.864 0 1 1-185.718 0 65.066 65.066 0 0 1 1.461-14.615q-14.064-4.424-27.768-10.24A309.313 309.313 0 0 1 229.2 614.09a303.107 303.107 0 0 1-24.224-119.12v-254.498l-91.523-177.94a36.036 36.036 0 0 1 32.032-52.513H346.64c14.014-78.35 82.674-138 164.997-138s150.963 59.65 164.987 138h201.134a36.036 36.036 0 0 1 32.032 52.513z m-398.154-118.46A95.707 95.707 0 0 0 420.804 10h181.674a95.707 95.707 0 0 0-90.842-65.927z m-307.08 137.99l67.948 132.133a35.786 35.786 0 0 1 3.644 9.5v0.14q0.15 0.68 0.28 1.372c0 0.18 0.07 0.37 0.1 0.55s0.1 0.66 0.15 1.001 0.09 0.63 0.12 1.001 0 0.43 0.06 0.65q0.06 0.642 0.1 1.292V494.881c0 62.363 24.485 121.182 68.94 165.647s103.425 68.94 165.738 68.94 121.183-24.485 165.648-68.94 68.94-103.284 68.94-165.647v-265.219q0-0.65 0.1-1.301c0-0.21 0-0.42 0.06-0.63s0.08-0.651 0.12-1.002 0.09-0.64 0.14-1 0.07-0.381 0.1-0.581q0.12-0.681 0.27-1.352v-0.16a35.786 35.786 0 0 1 3.634-9.5l67.959-132.133z"  horiz-adv-x="1024" />
      
      <glyph glyph-name="wangyiyun" unicode="&#58884;" d="M350.375 834h323.25C774.5 834 812 823.5 846.875 804A204.375 204.375 0 0 0 932 718.875c19.5-34.875 30-72.375 30-173.25v-323.25c0-100.125-10.5-136.5-30-173.25A204.375 204.375 0 0 0 846.875-36c-37.5-19.5-73.125-30-173.25-30h-323.25C249.5-66 212-55.5 177.125-36A204.375 204.375 0 0 0 92 49.125C72.5 84 62 121.5 62 222.375v323.25C62 646.5 72.5 684 92 718.875A204.375 204.375 0 0 0 177.125 804C212 823.5 249.5 834 350.375 834zM645.125 718.125a156.75 156.75 0 0 0 58.875-28.5 43.875 43.875 0 0 0 15-18.375 37.5 37.5 0 0 0-3.375-34.875 37.5 37.5 0 0 0-51.375-11.625c-4.125 2.625-7.125 6.375-11.25 8.625a67.875 67.875 0 0 1-37.5 12.375 37.5 37.5 0 0 1-24-12.375 26.625 26.625 0 0 1-7.125-24l13.875-52.125a201 201 0 0 0 94.5-27.75 269.625 269.625 0 0 0 72.375-64.875 225 225 0 0 0 37.5-75A249.375 249.375 0 0 0 812 303a275.25 275.25 0 0 0-15-72 282 282 0 0 0-112.5-138 300 300 0 0 0-124.125-43.5 310.5 310.5 0 0 0-91.125 0 300 300 0 0 0-164.25 87 322.5 322.5 0 0 0-85.125 297.375 316.5 316.5 0 0 0 189.75 225 50.25 50.25 0 0 0 42-2.25A37.5 37.5 0 0 0 467 621.375a37.5 37.5 0 0 0-24-30.75 241.5 241.5 0 0 1-153.375-193.5 246 246 0 0 1 13.5-119.25 242.25 242.25 0 0 1 112.5-129.75A219.375 219.375 0 0 1 518 123.375a255.75 255.75 0 0 1 85.875 15.375 203.625 203.625 0 0 1 111 95.25 166.5 166.5 0 0 1 14.25 33.75 187.5 187.5 0 0 1 0 104.25 158.25 158.25 0 0 1-47.625 73.125A208.5 208.5 0 0 1 650 468a120.375 120.375 0 0 1-31.5 12c7.5-30 15.75-60 23.625-90.375l3.75-21.75a127.875 127.875 0 0 0-103.125-129.75 122.625 122.625 0 0 0-90 16.875 135.375 135.375 0 0 0-53.25 69 163.875 163.875 0 0 0-9 49.125 169.5 169.5 0 0 0 28.5 103.5 187.5 187.5 0 0 0 104.25 72l-9 34.875a103.5 103.5 0 0 0 5.625 75 108.375 108.375 0 0 0 27 34.125A110.25 110.25 0 0 0 587 717.375a112.5 112.5 0 0 0 58.125 0.75zM490.25 444.375a87.75 87.75 0 0 1-22.125-42 112.5 112.5 0 0 1 0-43.5 64.875 64.875 0 0 1 24.75-40.5 47.625 47.625 0 0 1 37.5-7.125A52.5 52.5 0 0 1 572.75 360a135 135 0 0 1-3.375 17.25L543.5 475.125a119.625 119.625 0 0 1-53.25-30.75z"  horiz-adv-x="1024" />
      
      <glyph glyph-name="bofang-xunhuanbofang" unicode="&#59021;" d="M861.742545 375.994182c13.963636 0 25.460364-10.146909 27.648-23.458909l0.372364-4.514909v-77.730909a183.435636 183.435636 0 0 0-174.033454-183.20291l-9.448728-0.279272H229.981091l90.437818-90.437818a28.439273 28.439273 0 0 0 3.258182-36.305455l-3.258182-3.909818a28.439273 28.439273 0 0 0-36.305454-3.258182l-3.909819 3.258182-136.192 136.192a33.978182 33.978182 0 0 0-3.490909 44.218182l3.490909 4.049454 133.911273 133.911273a28.439273 28.439273 0 0 0 43.52-36.305455l-3.258182-3.909818-87.412363-87.365818-4.049455-4.142545h479.557818a127.441455 127.441455 0 0 1 127.255273 119.714909l0.232727 7.773091v77.730909c0 15.453091 12.520727 27.973818 27.973818 27.973818z m-122.135272 438.923636l3.956363-3.258182L879.709091 675.467636a33.978182 33.978182 0 0 0 8.192-13.079272l0.651636-2.187637c2.606545-9.774545 0.791273-20.48-5.399272-28.951272l-3.444364-4.049455-133.911273-133.911273a28.439273 28.439273 0 0 0-43.52 36.305455l3.258182 3.909818 87.412364 87.365818 4.049454 4.189091-479.604363-0.046545a127.441455 127.441455 0 0 1-127.208728-119.714909l-0.232727-7.726546v-77.730909a28.020364 28.020364 0 0 0-55.621818-4.561455l-0.372364 4.561455V497.570909a183.435636 183.435636 0 0 0 173.986909 183.202909l9.448728 0.232727h476.346181L703.301818 771.444364a28.439273 28.439273 0 0 0-3.304727 36.305454l3.258182 3.909818a28.439273 28.439273 0 0 0 36.305454 3.258182z"  horiz-adv-x="1024" />
      
      <glyph glyph-name="kugouyinle" unicode="&#58992;" d="M510.816-94.112C247.456-94.112 32 121.344 32 384.64 32 648.032 247.456 863.488 510.816 863.488c263.328 0 478.784-215.456 478.784-478.816 0-265.728-215.456-478.784-478.784-478.784zM343.232 609.728h119.68v-155.616l150.848 155.616h167.552s-205.856-191.52-215.456-201.12c-9.568-9.568-14.368-26.336-2.4-45.472 14.4-19.168 179.552-210.688 179.552-210.688l-150.816 2.4-150.816 179.552-14.368-181.952-124.48-2.368 40.704 459.648z"  horiz-adv-x="1024" />
      
      <glyph glyph-name="dangqianweizhi" unicode="&#58896;" d="M513.11-64.22s-336 374.44-336 560c0 185.55 150.44 336 336 336s336-150.45 336-336c0-185.57-336-560-336-560z m0 784c-123.7 0-224-100.3-224-224 0-123.72 100.3-224 224-224s224 100.28 224 224c0 123.7-100.3 224-224 224z m0-336c-61.86 0-112 50.14-112 112s50.14 112 112 112 112-50.14 112-112-50.14-112-112-112z"  horiz-adv-x="1024" />
      
      <glyph glyph-name="a-quxiaoguanbi" unicode="&#58960;" d="M843.861333 52.138667a42.666667 42.666667 0 0 0-60.330666 0L180.138667 655.530667a42.666667 42.666667 0 1 0 60.330666 60.330666l603.392-603.392a42.666667 42.666667 0 0 0 0-60.330666zM843.861333 715.861333a42.666667 42.666667 0 0 0 0-60.330666L240.469333 52.138667a42.666667 42.666667 0 0 0-60.330666 60.330666L783.530667 715.861333a42.666667 42.666667 0 0 0 60.330666 0z"  horiz-adv-x="1024" />
      
      <glyph glyph-name="shijian1" unicode="&#58962;" d="M512 810.666667C276.352 810.666667 85.333333 619.648 85.333333 384s191.018667-426.666667 426.666667-426.666667 426.666667 191.018667 426.666667 426.666667S747.648 810.666667 512 810.666667zM0 384C0 666.752 229.248 896 512 896s512-229.248 512-512-229.248-512-512-512S0 101.248 0 384zM512 597.333333a42.666667 42.666667 0 0 0 42.666667-42.666666v-170.666667a42.666667 42.666667 0 1 0-85.333334 0V554.666667a42.666667 42.666667 0 0 0 42.666667 42.666666zM481.834667 414.165333a42.666667 42.666667 0 0 0 60.330666 0l120.704-120.661333a42.666667 42.666667 0 1 0-60.373333-60.373333l-120.661333 120.704a42.666667 42.666667 0 0 0 0 60.330666z"  horiz-adv-x="1024" />
      
      <glyph glyph-name="xiangyou" unicode="&#58997;" d="M712.832 414.165333a42.666667 42.666667 0 0 0 0-60.330666l-341.333333-341.333334a42.666667 42.666667 0 0 0-60.330667 60.330667L622.336 384 311.168 695.168a42.666667 42.666667 0 0 0 60.330667 60.330667l341.333333-341.333334z"  horiz-adv-x="1024" />
      
      <glyph glyph-name="xiangzuo" unicode="&#58998;" d="M311.168 414.165333a42.666667 42.666667 0 0 1 0-60.330666l341.333333-341.333334a42.666667 42.666667 0 0 1 60.330667 60.330667L401.664 384l311.168 311.168a42.666667 42.666667 0 0 1-60.330667 60.330667l-341.333333-341.333334z"  horiz-adv-x="1024" />
      
      <glyph glyph-name="zuixiaohua1" unicode="&#58999;" d="M170.666667 384a42.666667 42.666667 0 0 0 42.666666 42.666667h597.333334a42.666667 42.666667 0 1 0 0-85.333334H213.333333a42.666667 42.666667 0 0 0-42.666666 42.666667z"  horiz-adv-x="1024" />
      
      <glyph glyph-name="a-tingzhiwukuang" unicode="&#59000;" d="M213.333333 640a42.666667 42.666667 0 0 0 42.666667 42.666667h512a42.666667 42.666667 0 0 0 42.666667-42.666667v-512a42.666667 42.666667 0 0 0-42.666667-42.666667H256a42.666667 42.666667 0 0 0-42.666667 42.666667V640z m85.333334-42.666667v-426.666666h426.666666V597.333333H298.666667z"  horiz-adv-x="1024" />
      
      <glyph glyph-name="dibu" unicode="&#58987;" d="M512.002157-81.98034c-256.939507 0-465.978183 209.038676-465.978182 465.978183s209.038676 465.978183 465.978182 465.978182c256.943822 0 465.978183-209.038676 465.978183-465.978182 0-72.860866-16.361012-142.666987-48.630001-207.468157-13.271749-26.668622-45.648603-37.524188-72.317225-24.23518-26.668622 13.271749-37.511244 45.648603-24.239495 72.317225 24.765877 49.738856 37.321401 103.365179 37.321401 159.394741 0 197.462569-160.641664 358.112863-358.112863 358.112862-197.462569 0-358.112863-160.650293-358.112862-358.112862s160.650293-358.112863 358.112862-358.112863c70.897718 0 139.409454 20.67131 198.139964 59.766017 24.809024 16.516338 58.277475 9.785542 74.780869-15.010538 16.503394-24.800394 9.789856-58.28179-15.010538-74.780869-76.498085-50.92969-165.681132-77.848559-257.910295-77.848559zM718.654852 435.423713c0-13.802446-5.272457-27.604893-15.800112-38.136863l-154.432936-154.43725a53.924031 53.924031 0 0 0-76.269411 0l-162.876633 162.876633c-21.06394 21.059625-21.06394 55.2141 0 76.273725 21.059625 21.06394 55.209785 21.06394 76.273725 0l124.739771-124.739771 116.296073 116.300388c21.068254 21.06394 55.2141 21.06394 76.273726 0a53.747132 53.747132 0 0 0 15.795797-38.136862z"  horiz-adv-x="1024" />
      
      <glyph glyph-name="fanhui" unicode="&#58990;" d="M516.31677-81.98034c-256.939507 0-465.978183 209.038676-465.978182 465.978183s209.038676 465.978183 465.978182 465.978182c256.943822 0 465.978183-209.038676 465.978183-465.978182 0-72.860866-16.361012-142.666987-48.630001-207.468157-13.271749-26.668622-45.648603-37.524188-72.317225-24.23518-26.668622 13.271749-37.511244 45.648603-24.239495 72.317225 24.765877 49.738856 37.321401 103.365179 37.321401 159.394741 0 197.462569-160.641664 358.112863-358.112863 358.112862-197.462569 0-358.112863-160.650293-358.112862-358.112862s160.650293-358.112863 358.112862-358.112863c70.897718 0 139.409454 20.67131 198.139964 59.766017 24.809024 16.516338 58.277475 9.785542 74.780869-15.010538 16.503394-24.800394 9.789856-58.28179-15.010538-74.780869-76.498085-50.92969-165.681132-77.848559-257.910295-77.848559zM561.810047 183.187134a53.807536 53.807536 0 0 0-38.136862 15.791483l-154.437251 154.432936a53.954233 53.954233 0 0 0 0 76.273725l162.876634 162.876633c21.059625 21.06394 55.2141 21.06394 76.273725 0 21.06394-21.059625 21.06394-55.209785 0-76.273725l-124.739771-124.739771 116.300388-116.300388c21.068254-21.068254 21.068254-55.2141 0-76.273725a53.760076 53.760076 0 0 0-38.136863-15.787168z"  horiz-adv-x="1024" />
      
      <glyph glyph-name="gengduo" unicode="&#58991;" d="M187.327544 383.997843m-122.966465 0a122.966465 122.966465 0 1 1 245.93293 0 122.966465 122.966465 0 1 1-245.93293 0ZM515.238117 383.997843m-122.966465 0a122.966465 122.966465 0 1 1 245.93293 0 122.966465 122.966465 0 1 1-245.93293 0ZM836.676771 383.997843m-122.966465 0a122.966465 122.966465 0 1 1 245.932929 0 122.966465 122.966465 0 1 1-245.932929 0Z"  horiz-adv-x="1024" />
      
      <glyph glyph-name="gengduo2" unicode="&#58993;" d="M512.002157 708.672456m-122.966465 0a122.966465 122.966465 0 1 1 245.93293 0 122.966465 122.966465 0 1 1-245.93293 0ZM512.002157 380.761883m-122.966465 0a122.966465 122.966465 0 1 1 245.93293 0 122.966465 122.966465 0 1 1-245.93293 0ZM512.002157 59.323229m-122.966465 0a122.966465 122.966465 0 1 1 245.93293 0 122.966465 122.966465 0 1 1-245.93293 0Z"  horiz-adv-x="1024" />
      
      <glyph glyph-name="a-suduxingneng" unicode="&#59001;" d="M511.854277-90.147446C250.407385-90.139569 37.706831 122.564923 37.706831 384.003938 37.706831 645.450831 250.411323 858.151385 511.854277 858.151385c261.446892 0 474.147446-212.700554 474.147446-474.147447 0-110.658954-38.939569-218.348308-109.638892-303.253661-17.400123-20.893538-48.450954-23.717415-69.332677-6.325169-20.897477 17.400123-23.725292 48.447015-6.325169 69.332677 56.000985 67.245292 86.847015 152.568123 86.847015 240.246153 0 207.1552-168.530708 375.685908-375.689846 375.685908-207.1552 0-375.685908-168.534646-375.685908-375.685908 0-207.151262 168.534646-375.681969 375.685908-375.689846 60.156062 0 117.614277 13.776738 170.771692 40.952123 24.205785 12.3904 53.870277 2.788431 66.244923-21.421292 12.374646-24.205785 2.784492-53.870277-21.421292-66.240985-66.225231-33.858954-140.780308-51.751385-215.6032-51.751384zM741.230277 572.254523c-18.432 19.987692-49.585231 21.251938-69.565046 2.819939l-94.314339-86.96517a136.258954 136.258954 0 0 1-62.932677 15.352123c-75.6224 0-137.145108-61.526646-137.145107-137.152984 0-75.6224 61.526646-137.152985 137.145107-137.152985 75.630277 0 137.152985 61.530585 137.152985 137.152985 0 16.962954-3.115323 33.209108-8.774892 48.218584l95.610092 88.162462c19.991631 18.428062 21.255877 49.573415 2.823877 69.565046z m-226.816-244.637538c-21.334646 0-38.687508 17.3568-38.687508 38.691446s17.3568 38.691446 38.687508 38.691446a38.585108 38.585108 0 0 0 29.3376-13.536492c0.212677-0.240246 0.393846-0.496246 0.606523-0.736493l0.1024-0.098461a38.506338 38.506338 0 0 0 8.633108-24.32c0.015754-21.334646-17.348923-38.691446-38.679631-38.691446zM782.655015 307.782892c-27.183262 0-49.230769 22.043569-49.230769 49.23077a204.760615 204.760615 0 0 1-7.723323 55.9104c-7.408246 26.1632 7.794215 53.374031 33.953477 60.786215 26.139569 7.400369 53.377969-7.790277 60.786215-33.949539a303.403323 303.403323 0 0 0 11.44517-82.751015c0-27.183262-22.043569-49.226831-49.23077-49.226831zM251.120246 327.467323c-27.1872 0-49.230769 22.043569-49.230769 49.230769 0 167.171938 136.006892 303.178831 303.178831 303.178831 36.698585 0 72.605538-6.5024 106.712615-19.326031 25.450338-9.566523 38.317292-37.954954 28.754708-63.405292-9.570462-25.450338-37.966769-38.321231-63.409231-28.754708a204.063508 204.063508 0 0 1-72.058092 13.024493c-112.880246 0-204.717292-91.837046-204.717293-204.717293 0-27.1872-22.039631-49.230769-49.230769-49.230769z"  horiz-adv-x="1024" />
      
      <glyph glyph-name="weixianjinggao" unicode="&#59003;" d="M514.159464 642.874611c-29.788087 0-53.93266-24.144573-53.93266-53.93266v-241.618317c0-29.783772 24.144573-53.93266 53.93266-53.93266 29.779458 0 53.93266 24.148888 53.93266 53.93266v241.618317c0 29.788087-24.153202 53.93266-53.93266 53.93266zM514.159464 237.301007c-29.783772 0-53.93266-24.153202-53.93266-53.93266v-4.314612c0-29.783772 24.148888-53.93266 53.93266-53.93266 29.779458 0 53.93266 24.148888 53.93266 53.93266v4.314612c0 29.788087-24.153202 53.93266-53.93266 53.93266zM912.989327 163.931017c-6.817088 0-13.754986 1.298698-20.44695 4.047107-27.561747 11.299971-40.729945 42.809588-29.425659 70.36702 18.967038 46.222447 28.575681 95.223505 28.57568 145.657013 0 29.788087 24.148888 53.93266 53.93266 53.93266s53.93266-24.144573 53.93266-53.93266c0-64.537978-12.322534-127.319909-36.648321-186.598374-8.568821-20.861153-28.700804-33.472766-49.92007-33.472766zM507.687545-107.868017c-271.216561 0-491.865859 220.649299-491.86586 491.86586s220.649299 491.865859 491.86586 491.865859c200.456911 0 379.1466-119.829741 455.226167-305.280429 11.304286-27.557432-1.868227-59.062735-29.425659-70.36702-27.553117-11.3086-59.05842 1.868227-70.367021 29.425659-59.403589 144.798406-198.920909 238.35647-355.433487 238.35647-211.739623 0-384.000539-172.260916-384.00054-384.000539 0-211.743938 172.260916-384.000539 384.00054-384.00054 103.57228 0 200.668327 40.609136 273.399754 114.363127 20.908614 21.202007 55.058774 21.44794 76.269411 0.522068 21.206322-20.912928 21.44794-55.063089 0.526383-76.265095-93.16112-94.459818-217.529834-146.485419-350.195548-146.48542z"  horiz-adv-x="1024" />
      
      <glyph glyph-name="a-yinleyinxiaoduomeiti" unicode="&#59005;" d="M573.673567-88.769131c-107.842193 0-217.17995 8.86722-324.975983 26.347782a33.133213 33.133213 0 0 1-0.664695 0.106167c-88.524486 15.42647-174.990263 92.798846-192.743167 172.46996-0.069239 0.286188-0.120014 0.553913-0.180021 0.835485-39.470898 190.342878-39.470898 383.367616 0 573.710494 0.060007 0.276956 0.110783 0.553913 0.180021 0.830869C73.038009 765.216589 159.503787 842.588965 248.032889 858.010819c0.221565 0.036928 0.44313 0.078471 0.669311 0.110782C356.493617 875.602164 465.831374 884.460151 573.673567 884.460151s217.17995-8.862604 324.980598-26.343166l0.66008-0.110782c88.529102-15.412622 174.990263-92.784998 192.743166-172.479193 0.064623-0.276956 0.120014-0.553913 0.175405-0.826253 39.48013-190.342878 39.48013-383.367616 0-573.710494-0.055391-0.276956-0.106167-0.549297-0.175405-0.821637-17.739055-79.684962-104.190984-157.057339-192.733935-172.483808a11.193653 11.193653 0 0 0-0.669311-0.106167c-107.800649-17.480563-217.143022-26.347782-324.980598-26.347782z m-306.129103 140.195312c101.587595-16.451208 204.578435-24.796827 306.124487-24.796827 101.550667 0 204.546123 8.345618 306.142949 24.801443 45.263902 8.036351 92.360332 52.446304 99.528886 83.497728 36.105878 174.45943 36.105878 351.383772 0 525.838586-7.177786 31.05604-54.278832 75.470609-99.528886 83.502344-101.596827 16.451208-204.587667 24.792211-306.138333 24.792211s-204.541507-8.341003-306.129103-24.792211c-45.259286-8.040966-92.360332-52.45092-99.538117-83.502344-36.105878-174.454814-36.105878-351.383772 0-525.838586 7.17317-31.046809 54.278832-75.461378 99.538117-83.502344zM711.800938 699.924125h-170.005049a57.694627 57.694627 0 0 1-56.019041-71.519365l54.334223-220.332636a196.966751 196.966751 0 0 1-25.198413 1.652506c-99.824306 0-181.037144-74.962856-181.037144-167.110854 0-92.152614 81.212838-167.110855 181.037144-167.110855s181.046376 74.95824 181.046376 167.110855c0 1.578651-0.087703 3.138839-0.129247 4.712874a57.662315 57.662315 0 0 1-1.481716 17.258997 154.19084 154.19084 0 0 1-7.353192 29.883592l-71.533213 290.051785h96.348503c31.86383 0 57.699243 25.835413 57.699243 57.699243s-25.844645 57.703859-57.708474 57.703858z m-196.88828-509.018103c-35.579661 0-65.638658 23.684385-65.638659 51.71237s30.058997 51.712369 65.638659 51.712369c28.147999 0 52.769419-14.840245 61.858204-34.905734l3.651208-14.803318c0.032312-0.673927 0.133862-1.329391 0.133862-2.012549-0.004616-28.018752-30.063613-51.703137-65.643274-51.703138zM835.166534 303.22106m-60.007212 0a60.007212 60.007212 0 1 1 120.014425 0 60.007212 60.007212 0 1 1-120.014425 0ZM294.649261 539.090948m-52.10934 0a52.10934 52.10934 0 1 1 104.21868 0 52.10934 52.10934 0 1 1-104.21868 0Z"  horiz-adv-x="1157" />
      
      <glyph glyph-name="a-yinlebofangliebiaoyinle" unicode="&#59006;" d="M928.681944 263.26044h-277.782369c-28.957862 0-52.437096 23.483429-52.437096 52.437096 0 28.957862 23.479234 52.437096 52.437096 52.437096h277.782369c28.957862 0 52.437096-23.479234 52.437096-52.437096s-23.479234-52.437096-52.437096-52.437096zM928.681944 100.210437h-277.782369c-28.957862 0-52.437096 23.483429-52.437096 52.437096 0 28.957862 23.479234 52.437096 52.437096 52.437096h277.782369c28.957862 0 52.437096-23.479234 52.437096-52.437096s-23.479234-52.437096-52.437096-52.437096zM807.745221-61.086071h-156.845646c-28.957862 0-52.437096 23.479234-52.437096 52.437096 0 28.953667 23.479234 52.437096 52.437096 52.437096H807.745221c28.953667 0 52.437096-23.483429 52.437096-52.437096 0-28.957862-23.483429-52.437096-52.437096-52.437096zM358.88368 356.703345a274.501905 274.501905 0 0 1-78.538185 11.427092c-139.428141 0-252.864262-103.284299-252.864262-230.236606s113.436121-230.236606 252.864262-230.236606c139.432336 0 252.868457 103.284299 252.868457 230.236606a213.062408 213.062408 0 0 1-1.237516 22.719945c0.788654 3.616062 1.229126 7.366363 1.229126 11.221539V641.814324l173.289919 94.533596v-38.203571l-108.028807-56.929906v-118.553981l184.914175 97.457489a52.428706 52.428706 0 0 1 27.988824 46.387952V824.685549a52.437096 52.437096 0 0 1-77.543977 46.035576L455.657389 718.972364a52.428706 52.428706 0 0 1-27.326019-46.03138v-152.034019a58.268101 58.268101 0 0 1 0-2.097484v-346.974166l0.004195-0.0839v-33.857584c0-69.124677-66.389558-125.362414-147.99007-125.362414-81.600511 0-147.99007 56.237737-147.99007 125.362414s66.389558 125.362414 147.99007 125.362414"  horiz-adv-x="1024" />
      
    </font>
</defs>
</svg>
